<?xml version="1.0" encoding="UTF-8"?>
<svg version="1.1" xmlns="http://www.w3.org/2000/svg" width="261" height="288">
<path d="M0 0 C3.63 0 7.26 0 11 0 C11 0.99 11 1.98 11 3 C12.98 3 14.96 3 17 3 C17 3.99 17 4.98 17 6 C17.99 6 18.98 6 20 6 C20 6.99 20 7.98 20 9 C22.97 9 25.94 9 29 9 C29 9.99 29 10.98 29 12 C31.97 12 34.94 12 38 12 C38 12.99 38 13.98 38 15 C41.96 15 45.92 15 50 15 C50 15.99 50 16.98 50 18 C57.26 18 64.52 18 72 18 C72 17.01 72 16.02 72 15 C73.04800781 14.92652344 73.04800781 14.92652344 74.1171875 14.8515625 C75.02726563 14.77679688 75.93734375 14.70203125 76.875 14.625 C77.77992188 14.55539063 78.68484375 14.48578125 79.6171875 14.4140625 C82.17941903 14.20431868 82.17941903 14.20431868 84 12 C86.625 12.375 86.625 12.375 89 13 C89 13.66 89 14.32 89 15 C89.99 15 90.98 15 92 15 C92 15.99 92 16.98 92 18 C92.99 18 93.98 18 95 18 C95 25.59 95 33.18 95 41 C94.01 41 93.02 41 92 41 C92 45.95 92 50.9 92 56 C91.01 56 90.02 56 89 56 C89 60.95 89 65.9 89 71 C88.01 71 87.02 71 86 71 C86 75.95 86 80.9 86 86 C85.01 86 84.02 86 83 86 C83 88.97 83 91.94 83 95 C82.01 95 81.02 95 80 95 C80 97.97 80 100.94 80 104 C79.01 104 78.02 104 77 104 C77 105.98 77 107.96 77 110 C76.01 110 75.02 110 74 110 C74 112.97 74 115.94 74 119 C73.01 119 72.02 119 71 119 C70.92652344 119.99580078 70.92652344 119.99580078 70.8515625 121.01171875 C70.10896309 129.78207381 70.10896309 129.78207381 68 134 C67.01 134 66.02 134 65 134 C65 135.98 65 137.96 65 140 C64.01 140 63.02 140 62 140 C62 141.98 62 143.96 62 146 C61.01 146 60.02 146 59 146 C59 146.99 59 147.98 59 149 C58.01 149 57.02 149 56 149 C56 150.98 56 152.96 56 155 C55.01 155 54.02 155 53 155 C53 155.99 53 156.98 53 158 C52.01 158 51.02 158 50 158 C50 159.98 50 161.96 50 164 C49.01 164 48.02 164 47 164 C47 164.99 47 165.98 47 167 C46.01 167 45.02 167 44 167 C44 167.99 44 168.98 44 170 C43.01 170 42.02 170 41 170 C41 170.99 41 171.98 41 173 C40.01 173 39.02 173 38 173 C38 173.99 38 174.98 38 176 C37.01 176 36.02 176 35 176 C35 176.99 35 177.98 35 179 C34.01 179 33.02 179 32 179 C32 179.99 32 180.98 32 182 C31.01 182 30.02 182 29 182 C29 182.99 29 183.98 29 185 C28.01 185 27.02 185 26 185 C25.87625 185.61875 25.7525 186.2375 25.625 186.875 C25 189 25 189 23 191 C22.01 191 21.02 191 20 191 C20 192.98 20 194.96 20 197 C18.02 197 16.04 197 14 197 C14.66 198.32 15.32 199.64 16 201 C13 201 13 201 11 200 C11 200.99 11 201.98 11 203 C9.02 203 7.04 203 5 203 C5 203.99 5 204.98 5 206 C1.37 206 -2.26 206 -6 206 C-6 205.01 -6 204.02 -6 203 C-6.99 203 -7.98 203 -9 203 C-9 202.01 -9 201.02 -9 200 C-10.98 200 -12.96 200 -15 200 C-15 199.01 -15 198.02 -15 197 C-16.98 197 -18.96 197 -21 197 C-21 196.01 -21 195.02 -21 194 C-21.99 194 -22.98 194 -24 194 C-24 193.01 -24 192.02 -24 191 C-24.99 190.67 -25.98 190.34 -27 190 C-27 189.34 -27 188.68 -27 188 C-27.99 188 -28.98 188 -30 188 C-30 187.01 -30 186.02 -30 185 C-30.99 185 -31.98 185 -33 185 C-33 184.01 -33 183.02 -33 182 C-34.11375 181.814375 -34.11375 181.814375 -35.25 181.625 C-37.80141485 181.04513299 -39.7267573 180.26291261 -42 179 C-42 178.01 -42 177.02 -42 176 C-42.99 176 -43.98 176 -45 176 C-45 175.01 -45 174.02 -45 173 C-45.99 173 -46.98 173 -48 173 C-48 172.01 -48 171.02 -48 170 C-48.99 170 -49.98 170 -51 170 C-51 168.02 -51 166.04 -51 164 C-51.99 164 -52.98 164 -54 164 C-54 163.01 -54 162.02 -54 161 C-54.99 161 -55.98 161 -57 161 C-57 159.02 -57 157.04 -57 155 C-57.99 155 -58.98 155 -60 155 C-60 153.02 -60 151.04 -60 149 C-60.99 149 -61.98 149 -63 149 C-63 146.03 -63 143.06 -63 140 C-63.99 140 -64.98 140 -66 140 C-66 136.04 -66 132.08 -66 128 C-66.99 128 -67.98 128 -69 128 C-69 125.03 -69 122.06 -69 119 C-69.99 118.67 -70.98 118.34 -72 118 C-72 113.38 -72 108.76 -72 104 C-72.99 104 -73.98 104 -75 104 C-75 100.04 -75 96.08 -75 92 C-75.99 92 -76.98 92 -78 92 C-78 82.1 -78 72.2 -78 62 C-78.99 61.67 -79.98 61.34 -81 61 C-81 50.77 -81 40.54 -81 30 C-77.04 30 -73.08 30 -69 30 C-69 29.01 -69 28.02 -69 27 C-65.37 27 -61.74 27 -58 27 C-58 27.99 -58 28.98 -58 30 C-52.98464948 29.67039784 -52.98464948 29.67039784 -49 27 C-45.375 26.875 -45.375 26.875 -42 27 C-42 26.01 -42 25.02 -42 24 C-39.03 24 -36.06 24 -33 24 C-32.67 22.68 -32.34 21.36 -32 20 C-29 20 -29 20 -27 21 C-27 20.01 -27 19.02 -27 18 C-26.01 18 -25.02 18 -24 18 C-24 17.01 -24 16.02 -24 15 C-21.03 15 -18.06 15 -15 15 C-15 14.01 -15 13.02 -15 12 C-14.01 12 -13.02 12 -12 12 C-12 11.01 -12 10.02 -12 9 C-11.01 9 -10.02 9 -9 9 C-9 8.01 -9 7.02 -9 6 C-7.02 6 -5.04 6 -3 6 C-3 5.01 -3 4.02 -3 3 C-2.01 3 -1.02 3 0 3 C0 2.01 0 1.02 0 0 Z " fill="#CDF8FD" transform="translate(122,47)"/>
<path d="M0 0 C0.99 0 1.98 0 3 0 C3 0.99 3 1.98 3 3 C5.97 3 8.94 3 12 3 C12 3.99 12 4.98 12 6 C15.96 6 19.92 6 24 6 C24 6.99 24 7.98 24 9 C31.26 9 38.52 9 46 9 C46 8.01 46 7.02 46 6 C46.69867188 5.95101562 47.39734375 5.90203125 48.1171875 5.8515625 C49.02726562 5.77679688 49.93734375 5.70203125 50.875 5.625 C52.23238281 5.52058594 52.23238281 5.52058594 53.6171875 5.4140625 C56.17941903 5.20431868 56.17941903 5.20431868 58 3 C60.625 3.375 60.625 3.375 63 4 C63 4.66 63 5.32 63 6 C63.99 6 64.98 6 66 6 C66 6.99 66 7.98 66 9 C66.99 9 67.98 9 69 9 C69 16.59 69 24.18 69 32 C68.01 32 67.02 32 66 32 C66 36.95 66 41.9 66 47 C65.01 47 64.02 47 63 47 C63 51.95 63 56.9 63 62 C62.01 62 61.02 62 60 62 C60 66.95 60 71.9 60 77 C59.01 77 58.02 77 57 77 C57 79.97 57 82.94 57 86 C56.01 86 55.02 86 54 86 C54 88.97 54 91.94 54 95 C53.01 95 52.02 95 51 95 C51 96.98 51 98.96 51 101 C50.01 101 49.02 101 48 101 C48 99.02 48 97.04 48 95 C48.66 95 49.32 95 50 95 C50 92.03 50 89.06 50 86 C50.99 85.67 51.98 85.34 53 85 C53.185625 83.0509375 53.185625 83.0509375 53.375 81.0625 C53.5859375 78.84765625 53.5859375 78.84765625 54 77 C54.66 76.67 55.32 76.34 56 76 C56.43151972 72.98688185 56.43151972 72.98688185 56.5625 69.5 C56.90355913 63.09644087 56.90355913 63.09644087 58 62 C58.23527773 59.65012738 58.41386417 57.29443961 58.5625 54.9375 C58.64628906 53.64714844 58.73007813 52.35679688 58.81640625 51.02734375 C58.90728516 49.52880859 58.90728516 49.52880859 59 48 C59.99 47.67 60.98 47.34 62 47 C62 42.05 62 37.1 62 32 C62.99 32 63.98 32 65 32 C64.814375 30.88625 64.62875 29.7725 64.4375 28.625 C64 25 64 25 65 23 C64.79288093 20.87579846 64.79288093 20.87579846 64.25 18.5625 C64.09015625 17.78003906 63.9303125 16.99757813 63.765625 16.19140625 C62.90011147 13.71409455 62.11257866 12.5488858 60 11 C57.65851268 11.27017161 55.32495277 11.61250787 53 12 C50.65739357 11.7397104 48.3182429 11.42579972 46 11 C45.34 11.99 44.68 12.98 44 14 C41.81689453 14.37231445 41.81689453 14.37231445 39.1328125 14.36328125 C38.16472656 14.36263672 37.19664062 14.36199219 36.19921875 14.36132812 C35.18472656 14.34521484 34.17023438 14.32910156 33.125 14.3125 C31.61486328 14.31733398 31.61486328 14.31733398 30.07421875 14.32226562 C22.10284906 14.26404181 22.10284906 14.26404181 18 12 C15.91155521 11.69560727 15.91155521 11.69560727 13.75 11.625 C9.0151486 11.15465052 4.68043943 10.17344012 1 7 C0 3.25 0 3.25 0 0 Z " fill="#A1C6F6" transform="translate(148,56)"/>
<path d="M0 0 C1.98 0 3.96 0 6 0 C5.67 0.99 5.34 1.98 5 3 C6.65 3 8.3 3 10 3 C9.67 3.66 9.34 4.32 9 5 C8.01 5 7.02 5 6 5 C6 7.31 6 9.62 6 12 C6.66 12 7.32 12 8 12 C8.02505615 13.22630127 8.0501123 14.45260254 8.07592773 15.71606445 C8.17003054 20.2615827 8.27024433 24.80694917 8.37231445 29.35229492 C8.41565241 31.32035779 8.45732832 33.28845798 8.49731445 35.2565918 C8.55504445 38.0839361 8.61873116 40.91109271 8.68359375 43.73828125 C8.70030624 44.61962234 8.71701874 45.50096344 8.73423767 46.40901184 C8.75418289 47.22963608 8.77412811 48.05026031 8.79467773 48.89575195 C8.81022202 49.61745071 8.8257663 50.33914948 8.84178162 51.0827179 C8.94195257 53.22108144 8.94195257 53.22108144 10 56 C10.02172852 57.99291992 10.02172852 57.99291992 9.87890625 60.23046875 C9.83056641 61.03291016 9.78222656 61.83535156 9.73242188 62.66210938 C9.64831055 63.91217773 9.64831055 63.91217773 9.5625 65.1875 C9.51029297 66.03248047 9.45808594 66.87746094 9.40429688 67.74804688 C9.27476311 69.83236299 9.13806823 71.91623182 9 74 C8.01 74 7.02 74 6 74 C6 70.04 6 66.08 6 62 C5.01 62 4.02 62 3 62 C3 52.1 3 42.2 3 32 C2.01 31.67 1.02 31.34 0 31 C0 20.77 0 10.54 0 0 Z " fill="#B5D3FD" transform="translate(41,77)"/>
<path d="M0 0 C3.63 0 7.26 0 11 0 C11 0.99 11 1.98 11 3 C8.8125 4.4765625 8.8125 4.4765625 6 6 C0.54062207 9.59977732 -4.57786217 13.16328675 -9 18 C-11.75566251 20.75566251 -14.21539633 20.45934233 -18 21 C-18.66 21.66 -19.32 22.32 -20 23 C-21.65816784 23.68753301 -23.32459336 24.35561283 -25 25 C-25.33 25.33 -25.66 25.66 -26 26 C-27.546875 26.12375 -27.546875 26.12375 -29.125 26.25 C-32.85893048 26.97269622 -33.74532031 27.36890487 -36.5 29.625 C-39.36868688 31.86050824 -39.83736281 32 -43.75 32 C-46.80948138 31.05862111 -48.13140645 30.52809715 -50 28 C-49 27 -49 27 -45.4375 26.9375 C-44.303125 26.958125 -43.16875 26.97875 -42 27 C-42 26.01 -42 25.02 -42 24 C-39.03 24 -36.06 24 -33 24 C-32.67 22.68 -32.34 21.36 -32 20 C-29 20 -29 20 -27 21 C-27 20.01 -27 19.02 -27 18 C-26.01 18 -25.02 18 -24 18 C-24 17.01 -24 16.02 -24 15 C-21.03 15 -18.06 15 -15 15 C-15 14.01 -15 13.02 -15 12 C-14.01 12 -13.02 12 -12 12 C-12 11.01 -12 10.02 -12 9 C-11.01 9 -10.02 9 -9 9 C-9 8.01 -9 7.02 -9 6 C-7.02 6 -5.04 6 -3 6 C-3 5.01 -3 4.02 -3 3 C-2.01 3 -1.02 3 0 3 C0 2.01 0 1.02 0 0 Z " fill="#A1D9FC" transform="translate(122,47)"/>
<path d="M0 0 C0.99 0 1.98 0 3 0 C3 0.99 3 1.98 3 3 C2.01 3 1.02 3 0 3 C0 4.98 0 6.96 0 9 C-0.99 9 -1.98 9 -3 9 C-3 9.99 -3 10.98 -3 12 C-3.99 12 -4.98 12 -6 12 C-6 13.98 -6 15.96 -6 18 C-6.99 18 -7.98 18 -9 18 C-9 18.99 -9 19.98 -9 21 C-9.99 21 -10.98 21 -12 21 C-12 22.98 -12 24.96 -12 27 C-12.99 27 -13.98 27 -15 27 C-15 27.99 -15 28.98 -15 30 C-15.99 30 -16.98 30 -18 30 C-18 30.99 -18 31.98 -18 33 C-18.99 33 -19.98 33 -21 33 C-21 33.99 -21 34.98 -21 36 C-21.99 36 -22.98 36 -24 36 C-24 36.99 -24 37.98 -24 39 C-24.99 39 -25.98 39 -27 39 C-27 39.99 -27 40.98 -27 42 C-27.99 42 -28.98 42 -30 42 C-30 42.99 -30 43.98 -30 45 C-30.99 45 -31.98 45 -33 45 C-33 45.99 -33 46.98 -33 48 C-33.99 48 -34.98 48 -36 48 C-36 46.02 -36 44.04 -36 42 C-35.01 41.505 -35.01 41.505 -34 41 C-33.67 40.01 -33.34 39.02 -33 38 C-32.34 38 -31.68 38 -31 38 C-31.495 36.515 -31.495 36.515 -32 35 C-26.25 30 -26.25 30 -24 30 C-23.67 29.01 -23.34 28.02 -23 27 C-21.22265625 25.17578125 -21.22265625 25.17578125 -19.0625 23.3125 C-18.35222656 22.68988281 -17.64195312 22.06726563 -16.91015625 21.42578125 C-15 20 -15 20 -13 20 C-12.82984375 19.38511719 -12.6596875 18.77023438 -12.484375 18.13671875 C-10.49202733 11.49202733 -10.49202733 11.49202733 -7.9375 8.9375 C-6 8 -6 8 -4 8 C-3.71125 7.05125 -3.4225 6.1025 -3.125 5.125 C-2 2 -2 2 0 0 Z " fill="#C0E1FE" transform="translate(184,184)"/>
<path d="M0 0 C3 2 3 2 3.765625 4.2421875 C3.92546875 5.11101562 4.0853125 5.97984375 4.25 6.875 C4.42015625 7.73867187 4.5903125 8.60234375 4.765625 9.4921875 C5.00196839 12.02106182 4.68393677 13.58668024 4 16 C4 17.32 4 18.64 4 20 C3.01 20 2.02 20 1 20 C1 24.95 1 29.9 1 35 C0.01 35.495 0.01 35.495 -1 36 C-1.281765 38.32383502 -1.45171684 40.66176824 -1.5625 43 C-1.90349947 49.90349947 -1.90349947 49.90349947 -3 51 C-3.23481693 53.18292774 -3.41363323 55.37203174 -3.5625 57.5625 C-3.64628906 58.76003906 -3.73007813 59.95757812 -3.81640625 61.19140625 C-3.87699219 62.11824219 -3.93757812 63.04507813 -4 64 C-5.485 64.495 -5.485 64.495 -7 65 C-7 67.64 -7 70.28 -7 73 C-8.98 73.495 -8.98 73.495 -11 74 C-11 76.97 -11 79.94 -11 83 C-11.66 83 -12.32 83 -13 83 C-13 87.95 -13 92.9 -13 98 C-14.32 98 -15.64 98 -17 98 C-17.6875 95.25 -17.6875 95.25 -18 92 C-17.03542166 90.64082143 -16.03145371 89.30915279 -15 88 C-14.27518916 84.34725531 -14.27518916 84.34725531 -14 81 C-13.34 81 -12.68 81 -12 81 C-12 77.7 -12 74.4 -12 71 C-10.515 70.505 -10.515 70.505 -9 70 C-8.79029441 65.85906302 -8.79029441 65.85906302 -10 62 C-9.26320515 60.35895693 -8.52401263 58.7189246 -7.76953125 57.0859375 C-6.4473498 53.50195327 -6.24914899 49.78878291 -6 46 C-4.515 45.505 -4.515 45.505 -3 45 C-3.02320313 43.86820313 -3.04640625 42.73640625 -3.0703125 41.5703125 C-3.08906901 40.08854825 -3.10726934 38.60677688 -3.125 37.125 C-3.14175781 36.37863281 -3.15851563 35.63226563 -3.17578125 34.86328125 C-3.1933959 32.90805539 -3.10320189 30.95257979 -3 29 C-2.34 28.34 -1.68 27.68 -1 27 C-0.65783765 22.34805286 -0.65783765 22.34805286 -2 18 C-1.34 18 -0.68 18 0 18 C0 12.06 0 6.12 0 0 Z " fill="#B0D4FC" transform="translate(209,68)"/>
<path d="M0 0 C1.32 0 2.64 0 4 0 C4.144375 0.763125 4.28875 1.52625 4.4375 2.3125 C4.9632594 5.08172908 4.9632594 5.08172908 6 8 C6.66 8.33 7.32 8.66 8 9 C9.72664863 12.45329726 10.21952523 15.15830842 10 19 C10.7425 19.2475 11.485 19.495 12.25 19.75 C15.23023087 21.10465039 16.89919252 22.5101541 19 25 C19 25.66 19 26.32 19 27 C19.61875 27.0825 20.2375 27.165 20.875 27.25 C23 28 23 28 24.25 29.875 C25 32 25 32 25 35 C25.66 35 26.32 35 27 35 C27 35.99 27 36.98 27 38 C27.99 38 28.98 38 30 38 C30 38.99 30 39.98 30 41 C26.65626525 40.44271087 23.96687001 39.64826111 21 38 C21 37.01 21 36.02 21 35 C20.01 35 19.02 35 18 35 C18 34.01 18 33.02 18 32 C17.01 32 16.02 32 15 32 C15 31.01 15 30.02 15 29 C14.01 29 13.02 29 12 29 C12 27.02 12 25.04 12 23 C11.01 23 10.02 23 9 23 C9 22.01 9 21.02 9 20 C8.01 20 7.02 20 6 20 C6 18.02 6 16.04 6 14 C5.01 14 4.02 14 3 14 C3 12.02 3 10.04 3 8 C2.01 8 1.02 8 0 8 C0 5.36 0 2.72 0 0 Z " fill="#BDCDFD" transform="translate(59,188)"/>
<path d="M0 0 C2.97 0 5.94 0 9 0 C9 0.99 9 1.98 9 3 C12.96 3 16.92 3 21 3 C21 3.99 21 4.98 21 6 C26.61 6 32.22 6 38 6 C37.67 7.32 37.34 8.64 37 10 C34.20826945 10.02690104 31.41679652 10.04679053 28.625 10.0625 C27.43390625 10.07506836 27.43390625 10.07506836 26.21875 10.08789062 C20.2265625 10.11328125 20.2265625 10.11328125 18 9 C18 8.34 18 7.68 18 7 C14.7 7 11.4 7 8 7 C8 6.01 8 5.02 8 4 C5.36 4 2.72 4 0 4 C0 2.68 0 1.36 0 0 Z " fill="#90BDEF" transform="translate(151,59)"/>
<path d="M0 0 C0.99 0 1.98 0 3 0 C3.01981934 0.58491211 3.03963867 1.16982422 3.06005859 1.77246094 C3.15553481 4.43208025 3.26512142 7.09093838 3.375 9.75 C3.4059375 10.67039062 3.436875 11.59078125 3.46875 12.5390625 C3.50742187 13.42851563 3.54609375 14.31796875 3.5859375 15.234375 C3.6173584 16.05131836 3.6487793 16.86826172 3.68115234 17.70996094 C3.87975979 20.02949199 3.87975979 20.02949199 5.01367188 22.02734375 C6.15627697 24.31255394 6.23158955 25.78873131 6.1953125 28.328125 C6.18886719 29.12734375 6.18242188 29.9265625 6.17578125 30.75 C6.15902344 31.575 6.14226563 32.4 6.125 33.25 C6.11597656 34.09046875 6.10695313 34.9309375 6.09765625 35.796875 C6.07415817 37.86470604 6.03828908 39.93238995 6 42 C5.01 42 4.02 42 3 42 C3 38.04 3 34.08 3 30 C2.01 30 1.02 30 0 30 C0 20.1 0 10.2 0 0 Z " fill="#AEABFA" transform="translate(44,109)"/>
<path d="M0 0 C2.625 0.375 2.625 0.375 5 1 C5 1.66 5 2.32 5 3 C5.99 3 6.98 3 8 3 C8 3.99 8 4.98 8 6 C8.99 6 9.98 6 11 6 C11 9.96 11 13.92 11 18 C10.01 18 9.02 18 8 18 C8 15.03 8 12.06 8 9 C7.01 9 6.02 9 5 9 C5 8.01 5 7.02 5 6 C4.44441406 6.16242188 3.88882813 6.32484375 3.31640625 6.4921875 C0.79127928 7.04575665 -1.47933839 7.13279234 -4.0625 7.125 C-5.34833984 7.12886719 -5.34833984 7.12886719 -6.66015625 7.1328125 C-9 7 -9 7 -12 6 C-12 5.01 -12 4.02 -12 3 C-10.95199219 2.92652344 -10.95199219 2.92652344 -9.8828125 2.8515625 C-8.97273437 2.77679688 -8.06265625 2.70203125 -7.125 2.625 C-6.22007812 2.55539063 -5.31515625 2.48578125 -4.3828125 2.4140625 C-1.82058097 2.20431868 -1.82058097 2.20431868 0 0 Z " fill="#93B8F6" transform="translate(206,59)"/>
<path d="M0 0 C0.99 0 1.98 0 3 0 C3 0.99 3 1.98 3 3 C2.01 3 1.02 3 0 3 C0 4.98 0 6.96 0 9 C-0.99 9 -1.98 9 -3 9 C-3 9.99 -3 10.98 -3 12 C-3.99 12 -4.98 12 -6 12 C-6 13.98 -6 15.96 -6 18 C-6.99 18 -7.98 18 -9 18 C-9 18.99 -9 19.98 -9 21 C-9.99 21 -10.98 21 -12 21 C-12 22.98 -12 24.96 -12 27 C-14.97 27 -17.94 27 -21 27 C-20.04882866 25.8274869 -19.08882991 24.66212985 -18.125 23.5 C-17.59132812 22.8503125 -17.05765625 22.200625 -16.5078125 21.53125 C-16.01023438 21.0259375 -15.51265625 20.520625 -15 20 C-14.34 20 -13.68 20 -13 20 C-12.82984375 19.38511719 -12.6596875 18.77023438 -12.484375 18.13671875 C-10.49202733 11.49202733 -10.49202733 11.49202733 -7.9375 8.9375 C-6 8 -6 8 -4 8 C-3.71125 7.05125 -3.4225 6.1025 -3.125 5.125 C-2 2 -2 2 0 0 Z " fill="#BFE1FE" transform="translate(184,184)"/>
<path d="M0 0 C-2.22922955 2.22922955 -4.09135278 2.88128953 -7 4 C-7.33 4.33 -7.66 4.66 -8 5 C-9.546875 5.12375 -9.546875 5.12375 -11.125 5.25 C-14.85893048 5.97269622 -15.74532031 6.36890487 -18.5 8.625 C-21.36868688 10.86050824 -21.83736281 11 -25.75 11 C-28.80948138 10.05862111 -30.13140645 9.52809715 -32 7 C-31 6 -31 6 -27.4375 5.9375 C-26.303125 5.958125 -25.16875 5.97875 -24 6 C-24 5.01 -24 4.02 -24 3 C-18.87416389 2.89748328 -14.05002222 2.96409801 -9 4 C-9 3.01 -9 2.02 -9 1 C-2.25 -1.125 -2.25 -1.125 0 0 Z " fill="#B5BEFB" transform="translate(104,68)"/>
<path d="M0 0 C1.32 0 2.64 0 4 0 C4 0.99 4 1.98 4 3 C4.763125 2.896875 5.52625 2.79375 6.3125 2.6875 C7.199375 2.790625 8.08625 2.89375 9 3 C10.625 5.4375 10.625 5.4375 12 8 C12.99 8.33 13.98 8.66 15 9 C15 9.66 15 10.32 15 11 C17.31 11.33 19.62 11.66 22 12 C22 12.66 22 13.32 22 14 C22.99 14.33 23.98 14.66 25 15 C24.67 15.99 24.34 16.98 24 18 C23.01 18 22.02 18 21 18 C21 17.01 21 16.02 21 15 C19.02 15 17.04 15 15 15 C15 14.01 15 13.02 15 12 C13.02 12 11.04 12 9 12 C9 11.01 9 10.02 9 9 C8.01 9 7.02 9 6 9 C6 8.01 6 7.02 6 6 C5.01 5.67 4.02 5.34 3 5 C3 4.34 3 3.68 3 3 C2.01 3 1.02 3 0 3 C0 2.01 0 1.02 0 0 Z " fill="#ADEDFF" transform="translate(92,232)"/>
<path d="M0 0 C0.33 0 0.66 0 1 0 C1.07347656 1.28197266 1.07347656 1.28197266 1.1484375 2.58984375 C1.22320312 3.69457031 1.29796875 4.79929688 1.375 5.9375 C1.44460937 7.03964844 1.51421875 8.14179688 1.5859375 9.27734375 C1.72257812 10.17582031 1.85921875 11.07429687 2 12 C2.66 12.33 3.32 12.66 4 13 C4.25 20.625 4.25 20.625 2 24 C1.01 24 0.02 24 -1 24 C-1 20.04 -1 16.08 -1 12 C-1.99 12 -2.98 12 -4 12 C-4.37096774 6.43548387 -4.37096774 6.43548387 -2.5625 4.3125 C-1.7890625 3.6628125 -1.7890625 3.6628125 -1 3 C-0.67 2.01 -0.34 1.02 0 0 Z " fill="#B3E1FE" transform="translate(57,163)"/>
<path d="M0 0 C1.98 0 3.96 0 6 0 C6.66 1.32 7.32 2.64 8 4 C5 4 5 4 3 3 C3 3.99 3 4.98 3 6 C1.02 6 -0.96 6 -3 6 C-3 6.99 -3 7.98 -3 9 C-6.63 9 -10.26 9 -14 9 C-14 8.01 -14 7.02 -14 6 C-12.02 5.67 -10.04 5.34 -8 5 C-8 4.34 -8 3.68 -8 3 C-6.865625 2.87625 -5.73125 2.7525 -4.5625 2.625 C-3.386875 2.41875 -2.21125 2.2125 -1 2 C-0.67 1.34 -0.34 0.68 0 0 Z " fill="#ACEFFE" transform="translate(130,244)"/>
<path d="M0 0 C1.65 0 3.3 0 5 0 C5 2.31 5 4.62 5 7 C4.01 7 3.02 7 2 7 C2 11.95 2 16.9 2 22 C1.01 22 0.02 22 -1 22 C-1.84681133 16.91913204 -2.09038099 12.15171623 -2 7 C-1.01 7 -0.02 7 1 7 C0.67 4.69 0.34 2.38 0 0 Z " fill="#95B6EE" transform="translate(212,81)"/>
<path d="M0 0 C0.99 0 1.98 0 3 0 C3 8.58 3 17.16 3 26 C2.34 26 1.68 26 1 26 C0.67 26.66 0.34 27.32 0 28 C0 18.76 0 9.52 0 0 Z " fill="#6990D3" transform="translate(41,77)"/>
<path d="M0 0 C3.63 0 7.26 0 11 0 C11 0.99 11 1.98 11 3 C9.88625 3.103125 8.7725 3.20625 7.625 3.3125 C6.42875 3.539375 5.2325 3.76625 4 4 C3.01 5.485 3.01 5.485 2 7 C1.01 7 0.02 7 -1 7 C-1 7.66 -1 8.32 -1 9 C-3.64 9 -6.28 9 -9 9 C-9 8.01 -9 7.02 -9 6 C-7.02 6 -5.04 6 -3 6 C-3 5.01 -3 4.02 -3 3 C-2.01 3 -1.02 3 0 3 C0 2.01 0 1.02 0 0 Z " fill="#A4BCFB" transform="translate(122,47)"/>
<path d="M0 0 C2.97 0 5.94 0 9 0 C9 0.99 9 1.98 9 3 C12.96 3 16.92 3 21 3 C21 3.99 21 4.98 21 6 C16.71 6 12.42 6 8 6 C8 5.34 8 4.68 8 4 C5.36 4 2.72 4 0 4 C0 2.68 0 1.36 0 0 Z " fill="#84ACE4" transform="translate(151,59)"/>
<path d="M0 0 C0.33 0 0.66 0 1 0 C1 7.26 1 14.52 1 22 C0.01 22 -0.98 22 -2 22 C-2.33 22.99 -2.66 23.98 -3 25 C-3.66 25 -4.32 25 -5 25 C-4.505 23.515 -4.505 23.515 -4 22 C-3.77439324 19.60745424 -3.59151405 17.21071877 -3.4375 14.8125 C-3.35371094 13.54019531 -3.26992187 12.26789063 -3.18359375 10.95703125 C-3.12300781 9.98121094 -3.06242188 9.00539063 -3 8 C-2.01 7.67 -1.02 7.34 0 7 C0 4.69 0 2.38 0 0 Z " fill="#A3B8F2" transform="translate(210,96)"/>
<path d="M0 0 C0.33 0 0.66 0 1 0 C1.16890918 2.22899787 1.33503687 4.45820662 1.5 6.6875 C1.5928125 7.92886719 1.685625 9.17023438 1.78125 10.44921875 C1.91341242 12.59449799 1.99195347 14.7453101 1.96875 16.89453125 C1.75533878 18.9875171 1.75533878 18.9875171 3 20 C3.04092937 22.33297433 3.04241723 24.66705225 3 27 C1.35 27.66 -0.3 28.32 -2 29 C-3.125 25.25 -3.125 25.25 -2 23 C-1.34 23 -0.68 23 0 23 C0 15.41 0 7.82 0 0 Z " fill="#9DB1F9" transform="translate(44,80)"/>
<path d="M0 0 C0.99 0 1.98 0 3 0 C3 1.98 3 3.96 3 6 C1.35 6.33 -0.3 6.66 -2 7 C-2 7.66 -2 8.32 -2 9 C-4.97 9 -7.94 9 -11 9 C-11.33 8.01 -11.66 7.02 -12 6 C-9.03 6 -6.06 6 -3 6 C-3 5.01 -3 4.02 -3 3 C-2.01 3 -1.02 3 0 3 C0 2.01 0 1.02 0 0 Z " fill="#79BDF4" transform="translate(110,56)"/>
<path d="M0 0 C3.375 4.5 3.375 4.5 3.29296875 8.328125 C3.28330078 9.12734375 3.27363281 9.9265625 3.26367188 10.75 C3.23853516 11.575 3.21339844 12.4 3.1875 13.25 C3.17396484 14.09046875 3.16042969 14.9309375 3.14648438 15.796875 C3.11123464 17.86485938 3.0574302 19.93251271 3 22 C2.01 22 1.02 22 0 22 C0 14.74 0 7.48 0 0 Z " fill="#AABFF9" transform="translate(47,129)"/>
<path d="M0 0 C0 3.3 0 6.6 0 10 C-0.99 10 -1.98 10 -3 10 C-3 11.98 -3 13.96 -3 16 C-3.99 16 -4.98 16 -6 16 C-6 14.02 -6 12.04 -6 10 C-5.34 10 -4.68 10 -4 10 C-4 7.03 -4 4.06 -4 1 C-1 0 -1 0 0 0 Z " fill="#99C5F5" transform="translate(202,141)"/>
<path d="M0 0 C0.33 0.99 0.66 1.98 1 3 C0.34 3 -0.32 3 -1 3 C-1 7.95 -1 12.9 -1 18 C-2.32 18 -3.64 18 -5 18 C-5.6875 15.25 -5.6875 15.25 -6 12 C-5.03542166 10.64082143 -4.03145371 9.30915279 -3 8 C-2.64456573 5.66993089 -2.3086247 3.33672984 -2 1 C-1.34 0.67 -0.68 0.34 0 0 Z " fill="#B2E2FD" transform="translate(197,148)"/>
<path d="M0 0 C3 2 3 2 3.73046875 4.3828125 C3.88128906 5.28773437 4.03210938 6.19265625 4.1875 7.125 C4.34605469 8.03507812 4.50460938 8.94515625 4.66796875 9.8828125 C4.83232422 10.93082031 4.83232422 10.93082031 5 12 C3.02 12.99 3.02 12.99 1 14 C1 15.65 1 17.3 1 19 C0.01 19 -0.98 19 -2 19 C-1.34 18.67 -0.68 18.34 0 18 C0 12.06 0 6.12 0 0 Z " fill="#BAD8FE" transform="translate(209,68)"/>
<path d="M0 0 C0.33 0.66 0.66 1.32 1 2 C0.34 2 -0.32 2 -1 2 C-1.33 3.32 -1.66 4.64 -2 6 C-2.66 6 -3.32 6 -4 6 C-4 8.97 -4 11.94 -4 15 C-4.99 15 -5.98 15 -7 15 C-8.13770686 11.11283491 -8.21103919 8.77374783 -6.3125 5.25 C-4.23059425 2.32407841 -3.33184833 1.07095125 0 0 Z " fill="#C5E0FE" transform="translate(152,220)"/>
<path d="M0 0 C0 0.99 0 1.98 0 3 C-0.99 3 -1.98 3 -3 3 C-3 3.99 -3 4.98 -3 6 C-3.99 6 -4.98 6 -6 6 C-6 6.99 -6 7.98 -6 9 C-6.99 9 -7.98 9 -9 9 C-9.36 3.6 -9.36 3.6 -7.875 1.125 C-5.21965017 -0.4682099 -3.03210482 -0.20214032 0 0 Z " fill="#AEC0FC" transform="translate(157,223)"/>
<path d="M0 0 C1.32 0 2.64 0 4 0 C4 0.99 4 1.98 4 3 C5.65 3 7.3 3 9 3 C9.99 4.98 10.98 6.96 12 9 C10.02 9 8.04 9 6 9 C6 8.01 6 7.02 6 6 C5.01 5.67 4.02 5.34 3 5 C3 4.34 3 3.68 3 3 C2.01 3 1.02 3 0 3 C0 2.01 0 1.02 0 0 Z " fill="#BEF0FF" transform="translate(92,232)"/>
<path d="M0 0 C5.42857143 -0.36190476 5.42857143 -0.36190476 7.875 1.1875 C9.34781139 3.56036279 9.22223194 5.25913944 9 8 C8.01 8.33 7.02 8.66 6 9 C6 8.01 6 7.02 6 6 C5.01 6 4.02 6 3 6 C3 5.01 3 4.02 3 3 C2.01 3 1.02 3 0 3 C0 2.01 0 1.02 0 0 Z " fill="#B5BDFB" transform="translate(71,214)"/>
<path d="M0 0 C0.66 0 1.32 0 2 0 C2 0.99 2 1.98 2 3 C2.99 3 3.98 3 5 3 C5 5.97 5 8.94 5 12 C5.99 12 6.98 12 8 12 C8 13.32 8 14.64 8 16 C6.68 15.67 5.36 15.34 4 15 C3.81824219 13.95199219 3.81824219 13.95199219 3.6328125 12.8828125 C3.46523437 11.97273438 3.29765625 11.06265625 3.125 10.125 C2.96257812 9.22007813 2.80015625 8.31515625 2.6328125 7.3828125 C2.16955297 4.83494012 2.16955297 4.83494012 0 3 C0 2.01 0 1.02 0 0 Z " fill="#AFBCF7" transform="translate(209,65)"/>
<path d="M0 0 C3.63 0 7.26 0 11 0 C11 0.99 11 1.98 11 3 C5.04296875 4.7578125 5.04296875 4.7578125 3 5 C2.01 4.34 1.02 3.68 0 3 C0 2.01 0 1.02 0 0 Z " fill="#C0BEFF" transform="translate(53,74)"/>
<path d="M0 0 C0.99 0 1.98 0 3 0 C3 0.99 3 1.98 3 3 C2.01 3 1.02 3 0 3 C0 4.98 0 6.96 0 9 C-0.99 9 -1.98 9 -3 9 C-3 9.99 -3 10.98 -3 12 C-3.99 12 -4.98 12 -6 12 C-6 11.01 -6 10.02 -6 9 C-5.34 8.67 -4.68 8.34 -4 8 C-3.32060826 6.00428677 -2.65438441 4.00405227 -2 2 C-1.34 1.34 -0.68 0.68 0 0 Z " fill="#AED9F8" transform="translate(184,184)"/>
<path d="M0 0 C0.99 0 1.98 0 3 0 C3 4.29 3 8.58 3 13 C2.01 13 1.02 13 0 13 C0 8.71 0 4.42 0 0 Z " fill="#99BDFB" transform="translate(44,109)"/>
<path d="M0 0 C0.99 0 1.98 0 3 0 C3 4.29 3 8.58 3 13 C2.01 13 1.02 13 0 13 C0 8.71 0 4.42 0 0 Z " fill="#7797E1" transform="translate(211,90)"/>
<path d="M0 0 C-2.22922955 2.22922955 -4.09135278 2.88128953 -7 4 C-7.33 4.33 -7.66 4.66 -8 5 C-10.32961443 5.35840222 -12.66365343 5.68848712 -15 6 C-16.66934283 6.31966139 -18.3373217 6.64731066 -20 7 C-19.34 6.67 -18.68 6.34 -18 6 C-18 5.01 -18 4.02 -18 3 C-15.03 3.33 -12.06 3.66 -9 4 C-9 3.01 -9 2.02 -9 1 C-2.25 -1.125 -2.25 -1.125 0 0 Z " fill="#B8DEFE" transform="translate(104,68)"/>
<path d="M0 0 C1.98 0 3.96 0 6 0 C6.66 1.32 7.32 2.64 8 4 C5 4 5 4 3 3 C3 3.99 3 4.98 3 6 C2.01 6 1.02 6 0 6 C-1.125 2.25 -1.125 2.25 0 0 Z " fill="#84E2FC" transform="translate(130,244)"/>
<path d="M0 0 C0.99 0 1.98 0 3 0 C3 3.63 3 7.26 3 11 C2.01 11 1.02 11 0 11 C0 7.37 0 3.74 0 0 Z " fill="#6685CF" transform="translate(208,107)"/>
<path d="M0 0 C3.63 0 7.26 0 11 0 C11 0.99 11 1.98 11 3 C7.37 3 3.74 3 0 3 C0 2.01 0 1.02 0 0 Z " fill="#5686C1" transform="translate(174,65)"/>
<path d="M0 0 C0.08090971 1.62418745 0.13914995 3.24951745 0.1875 4.875 C0.22230469 5.77992187 0.25710937 6.68484375 0.29296875 7.6171875 C0.19628906 8.40351563 0.09960938 9.18984375 0 10 C-0.99 10.66 -1.98 11.32 -3 12 C-3 8.37 -3 4.74 -3 1 C-1 0 -1 0 0 0 Z " fill="#939FEF" transform="translate(208,120)"/>
<path d="M0 0 C0.99 0 1.98 0 3 0 C3 0.99 3 1.98 3 3 C2.34 3 1.68 3 1 3 C1 3.99 1 4.98 1 6 C-1.31 6 -3.62 6 -6 6 C-6 5.01 -6 4.02 -6 3 C-4.02 3 -2.04 3 0 3 C0 2.01 0 1.02 0 0 Z " fill="#8AADEC" transform="translate(119,50)"/>
<path d="M0 0 C0.99 0 1.98 0 3 0 C3 2.97 3 5.94 3 9 C2.01 9 1.02 9 0 9 C0 6.03 0 3.06 0 0 Z " fill="#99B2FA" transform="translate(50,156)"/>
<path d="M0 0 C0.99 0.33 1.98 0.66 3 1 C3 1.99 3 2.98 3 4 C3.99 4 4.98 4 6 4 C6 4.99 6 5.98 6 7 C3.625 6.75 3.625 6.75 1 6 C-0.375 4.0625 -0.375 4.0625 -1 2 C-0.67 1.34 -0.34 0.68 0 0 Z " fill="#A8B3FF" transform="translate(83,222)"/>
<path d="M0 0 C0.99 0 1.98 0 3 0 C3 2.97 3 5.94 3 9 C2.01 9 1.02 9 0 9 C0 6.03 0 3.06 0 0 Z " fill="#A2C0FC" transform="translate(56,178)"/>
<path d="M0 0 C0.33 0 0.66 0 1 0 C1.02688151 1.64574566 1.04634123 3.29161413 1.0625 4.9375 C1.07410156 5.85402344 1.08570313 6.77054687 1.09765625 7.71484375 C1 10 1 10 0 11 C-0.23192865 12.51469448 -0.41215238 14.03754562 -0.5625 15.5625 C-0.64628906 16.38878906 -0.73007813 17.21507813 -0.81640625 18.06640625 C-0.87699219 18.70449219 -0.93757812 19.34257813 -1 20 C-1.33 20 -1.66 20 -2 20 C-2.21133202 12.95559921 -2.07965362 6.75887425 0 0 Z " fill="#A7C9F9" transform="translate(206,108)"/>
<path d="M0 0 C0.99 0 1.98 0 3 0 C3 2.97 3 5.94 3 9 C2.01 9 1.02 9 0 9 C0 6.03 0 3.06 0 0 Z " fill="#9392E2" transform="translate(214,68)"/>
<path d="M0 0 C0.99 0 1.98 0 3 0 C3 0.99 3 1.98 3 3 C3.99 3 4.98 3 6 3 C6 3.99 6 4.98 6 6 C4.02 6 2.04 6 0 6 C0 4.02 0 2.04 0 0 Z " fill="#6573C4" transform="translate(211,62)"/>
<path d="M0 0 C2.97 0 5.94 0 9 0 C9 0.99 9 1.98 9 3 C6.03 3 3.06 3 0 3 C0 2.01 0 1.02 0 0 Z " fill="#5487D0" transform="translate(163,62)"/>
<path d="M0 0 C0.99 0 1.98 0 3 0 C3 2.31 3 4.62 3 7 C5.64 7 8.28 7 11 7 C10.67 7.66 10.34 8.32 10 9 C7.36 8.67 4.72 8.34 2 8 C0.74335022 5.09399739 0 3.20395416 0 0 Z " fill="#A6C2F7" transform="translate(148,56)"/>
<path d="M0 0 C4.875 0.875 4.875 0.875 6 2 C6.04080783 3.99958364 6.04254356 6.00045254 6 8 C5.01 8 4.02 8 3 8 C3 6.02 3 4.04 3 2 C2.01 2 1.02 2 0 2 C0 1.34 0 0.68 0 0 Z " fill="#B8D7FC" transform="translate(86,224)"/>
<path d="M0 0 C1.2065625 0.0309375 1.2065625 0.0309375 2.4375 0.0625 C2.4375 1.0525 2.4375 2.0425 2.4375 3.0625 C1.4475 3.0625 0.4575 3.0625 -0.5625 3.0625 C-0.5625 4.0525 -0.5625 5.0425 -0.5625 6.0625 C-1.5525 6.0625 -2.5425 6.0625 -3.5625 6.0625 C-3.605221 4.39638095 -3.60313832 2.72867115 -3.5625 1.0625 C-2.5625 0.0625 -2.5625 0.0625 0 0 Z " fill="#B0C7FA" transform="translate(160.5625,216.9375)"/>
<path d="M0 0 C1.98 0 3.96 0 6 0 C6 0.99 6 1.98 6 3 C5.01 3 4.02 3 3 3 C3 3.99 3 4.98 3 6 C2.01 5.67 1.02 5.34 0 5 C0 3.35 0 1.7 0 0 Z " fill="#BACBF4" transform="translate(163,211)"/>
<path d="M0 0 C2.97 0 5.94 0 9 0 C9 0.99 9 1.98 9 3 C6.36 3 3.72 3 1 3 C0.67 2.01 0.34 1.02 0 0 Z " fill="#5FB7E5" transform="translate(98,62)"/>
<path d="M0 0 C1.2077558 3.62326739 0.54311128 4.64146369 -1 8 C-1.99 8 -2.98 8 -4 8 C-4 6.02 -4 4.04 -4 2 C-2.68 1.34 -1.36 0.68 0 0 Z " fill="#79DDFB" transform="translate(191,173)"/>
<path d="M0 0 C2 2 2 2 2.125 5.625 C2.08375 6.73875 2.0425 7.8525 2 9 C1.34 9 0.68 9 0 9 C-0.33 9.66 -0.66 10.32 -1 11 C-1.0270043 9.54176788 -1.04639787 8.08339325 -1.0625 6.625 C-1.07410156 5.81289062 -1.08570313 5.00078125 -1.09765625 4.1640625 C-1 2 -1 2 0 0 Z " fill="#8186E5" transform="translate(42,94)"/>
<path d="M0 0 C1.32 0 2.64 0 4 0 C4 0.66 4 1.32 4 2 C4.99 2.33 5.98 2.66 7 3 C6.67 3.99 6.34 4.98 6 6 C5.01 6 4.02 6 3 6 C3 5.01 3 4.02 3 3 C2.01 3 1.02 3 0 3 C0 2.01 0 1.02 0 0 Z " fill="#B8F5FF" transform="translate(110,244)"/>
<path d="M0 0 C1.33332095 2.6666419 0.67102033 4.16680303 0 7 C-1.98 7 -3.96 7 -6 7 C-4.02 4.69 -2.04 2.38 0 0 Z " fill="#CAE4FF" transform="translate(169,204)"/>
<path d="M0 0 C0.33 0 0.66 0 1 0 C1 2.64 1 5.28 1 8 C0.01 8 -0.98 8 -2 8 C-2.125 5.125 -2.125 5.125 -2 2 C-1.34 1.34 -0.68 0.68 0 0 Z " fill="#94C1FA" transform="translate(55,167)"/>
<path d="M0 0 C0.33 0 0.66 0 1 0 C1.042721 1.66611905 1.04063832 3.33382885 1 5 C0.67 5.33 0.34 5.66 0 6 C-0.36760731 8.32817964 -0.70241581 10.6618385 -1 13 C-1.33 13 -1.66 13 -2 13 C-2.05391993 11.20866022 -2.09275571 9.41686101 -2.125 7.625 C-2.14820313 6.62726563 -2.17140625 5.62953125 -2.1953125 4.6015625 C-2 2 -2 2 0 0 Z " fill="#BADAFD" transform="translate(208,95)"/>
<path d="M0 0 C1.32 0 2.64 0 4 0 C3.34 1.98 2.68 3.96 2 6 C1.34 6 0.68 6 0 6 C0 5.01 0 4.02 0 3 C-0.66 2.67 -1.32 2.34 -2 2 C-1.34 2 -0.68 2 0 2 C0 1.34 0 0.68 0 0 Z " fill="#C1C7FE" transform="translate(80,220)"/>
<path d="M0 0 C1.32 0 2.64 0 4 0 C4 1.65 4 3.3 4 5 C2.0625 4.6875 2.0625 4.6875 0 4 C-0.33 3.01 -0.66 2.02 -1 1 C-0.67 0.67 -0.34 0.34 0 0 Z " fill="#A5D4F4" transform="translate(189,167)"/>
<path d="M0 0 C0.99 0 1.98 0 3 0 C3 1.98 3 3.96 3 6 C2.01 6.33 1.02 6.66 0 7 C0 4.69 0 2.38 0 0 Z " fill="#838CD8" transform="translate(41,77)"/>
<path d="M0 0 C1.32 0 2.64 0 4 0 C4 0.99 4 1.98 4 3 C4.66 3 5.32 3 6 3 C5.67 3.99 5.34 4.98 5 6 C4.34 5.67 3.68 5.34 3 5 C3 4.34 3 3.68 3 3 C2.01 3 1.02 3 0 3 C0 2.01 0 1.02 0 0 Z " fill="#94A2F1" transform="translate(92,232)"/>
<path d="M0 0 C3 0 3 0 4.6875 1.3125 C6 3 6 3 6 6 C5.01 6 4.02 6 3 6 C3 5.01 3 4.02 3 3 C2.01 3 1.02 3 0 3 C0 2.01 0 1.02 0 0 Z " fill="#AAAAF9" transform="translate(71,214)"/>
<path d="M0 0 C0.33 0 0.66 0 1 0 C1.25 2.8125 1.25 2.8125 1 6 C-1 7.875 -1 7.875 -3 9 C-2.69181644 7.68647977 -2.37832335 6.37420428 -2.0625 5.0625 C-1.88847656 4.33160156 -1.71445313 3.60070312 -1.53515625 2.84765625 C-1 1 -1 1 0 0 Z " fill="#BFE6FF" transform="translate(202,123)"/>
<path d="M0 0 C0 2.31 0 4.62 0 7 C-0.99 7 -1.98 7 -3 7 C-3 5.02 -3 3.04 -3 1 C-1 0 -1 0 0 0 Z " fill="#847CD7" transform="translate(214,96)"/>
<path d="M0 0 C0.99 0.66 1.98 1.32 3 2 C3 2.99 3 3.98 3 5 C1.35 5 -0.3 5 -2 5 C-1.125 1.125 -1.125 1.125 0 0 Z " fill="#738DF9" transform="translate(91,66)"/>
<path d="M0 0 C0.99 0 1.98 0 3 0 C3 1.98 3 3.96 3 6 C2.01 6 1.02 6 0 6 C0 4.02 0 2.04 0 0 Z " fill="#ACD2FB" transform="translate(175,196)"/>
<path d="M0 0 C0.99 0 1.98 0 3 0 C3 1.98 3 3.96 3 6 C2.01 6 1.02 6 0 6 C0 4.02 0 2.04 0 0 Z " fill="#8AC0F2" transform="translate(193,160)"/>
<path d="M0 0 C0.99 0 1.98 0 3 0 C3 1.98 3 3.96 3 6 C2.01 6 1.02 6 0 6 C0 4.02 0 2.04 0 0 Z " fill="#6E9FDE" transform="translate(199,145)"/>
<path d="M0 0 C0.99 0 1.98 0 3 0 C3 1.98 3 3.96 3 6 C2.01 6 1.02 6 0 6 C0 4.02 0 2.04 0 0 Z " fill="#5565AC" transform="translate(214,82)"/>
<path d="M0 0 C1.98 0 3.96 0 6 0 C6 0.99 6 1.98 6 3 C4.02 3 2.04 3 0 3 C0 2.01 0 1.02 0 0 Z " fill="#B3ADF5" transform="translate(80,71)"/>
<path d="M0 0 C1.98 0 3.96 0 6 0 C6 0.99 6 1.98 6 3 C4.02 3 2.04 3 0 3 C0 2.01 0 1.02 0 0 Z " fill="#5076B9" transform="translate(194,62)"/>
<path d="M0 0 C1.98 0 3.96 0 6 0 C6 0.99 6 1.98 6 3 C4.02 3 2.04 3 0 3 C0 2.01 0 1.02 0 0 Z " fill="#5B79BD" transform="translate(154,59)"/>
<path d="M0 0 C1.98 0 3.96 0 6 0 C5.01 0.33 4.02 0.66 3 1 C2.6278958 2.32303717 2.29369827 3.65737935 2 5 C1.01 5.495 1.01 5.495 0 6 C0 4.02 0 2.04 0 0 Z " fill="#91CDFB" transform="translate(113,56)"/>
<path d="M0 0 C0.33 0 0.66 0 1 0 C1 3.96 1 7.92 1 12 C0.01 12.33 -0.98 12.66 -2 13 C-1.34 8.71 -0.68 4.42 0 0 Z " fill="#93B6F1" transform="translate(207,108)"/>
<path d="M0 0 C1.65 0.33 3.3 0.66 5 1 C5 1.66 5 2.32 5 3 C2.69 3 0.38 3 -2 3 C-1.34 2.01 -0.68 1.02 0 0 Z " fill="#12129B" transform="translate(206,59)"/>
<path d="M0 0 C1.32 0.33 2.64 0.66 4 1 C2.68 2.32 1.36 3.64 0 5 C-0.99 4.67 -1.98 4.34 -3 4 C-2.01 2.68 -1.02 1.36 0 0 Z " fill="#B5D3FE" transform="translate(126,50)"/>
<path d="M0 0 C0.66 0.33 1.32 0.66 2 1 C1.67 2.65 1.34 4.3 1 6 C0.34 5.67 -0.32 5.34 -1 5 C-0.67 3.35 -0.34 1.7 0 0 Z " fill="#0000FF" transform="translate(199,246)"/>
<path d="M0 0 C0.66 0.33 1.32 0.66 2 1 C1.67 2.65 1.34 4.3 1 6 C0.34 5.67 -0.32 5.34 -1 5 C-0.67 3.35 -0.34 1.7 0 0 Z " fill="#000000" transform="translate(37,6)"/>
<path d="M0 0 C0.99 0.33 1.98 0.66 3 1 C2.67 1.66 2.34 2.32 2 3 C1.34 3 0.68 3 0 3 C0 2.01 0 1.02 0 0 Z " fill="#0000FF" transform="translate(0,129)"/>
<path d="M0 0 C0.99 0 1.98 0 3 0 C2.67 0.99 2.34 1.98 2 3 C1.34 2.67 0.68 2.34 0 2 C0 1.34 0 0.68 0 0 Z " fill="#FFFFFF" transform="translate(135,0)"/>
<path d="M0 0 C0.66 0.66 1.32 1.32 2 2 C1.01 2 0.02 2 -1 2 C-0.67 1.34 -0.34 0.68 0 0 Z " fill="#FFFFFF" transform="translate(127,273)"/>
<path d="M0 0 C0.66 0.66 1.32 1.32 2 2 C1.01 2 0.02 2 -1 2 C-0.67 1.34 -0.34 0.68 0 0 Z " fill="#FF00FF" transform="translate(55,273)"/>
<path d="M0 0 C0.66 0.66 1.32 1.32 2 2 C1.01 2 0.02 2 -1 2 C-0.67 1.34 -0.34 0.68 0 0 Z " fill="#0000FF" transform="translate(181,267)"/>
<path d="M0 0 C0.66 0.66 1.32 1.32 2 2 C1.01 2 0.02 2 -1 2 C-0.67 1.34 -0.34 0.68 0 0 Z " fill="#0000FF" transform="translate(199,264)"/>
<path d="M0 0 C0.66 0.66 1.32 1.32 2 2 C1.01 2 0.02 2 -1 2 C-0.67 1.34 -0.34 0.68 0 0 Z " fill="#0000FF" transform="translate(154,261)"/>
<path d="M0 0 C0.66 0.66 1.32 1.32 2 2 C1.01 2 0.02 2 -1 2 C-0.67 1.34 -0.34 0.68 0 0 Z " fill="#00FFFF" transform="translate(100,249)"/>
<path d="M0 0 C0.66 0.66 1.32 1.32 2 2 C1.01 2 0.02 2 -1 2 C-0.67 1.34 -0.34 0.68 0 0 Z " fill="#0000FF" transform="translate(73,243)"/>
<path d="M0 0 C0.66 0.66 1.32 1.32 2 2 C1.01 2 0.02 2 -1 2 C-0.67 1.34 -0.34 0.68 0 0 Z " fill="#0000FF" transform="translate(226,240)"/>
<path d="M0 0 C0.66 0.66 1.32 1.32 2 2 C1.01 2 0.02 2 -1 2 C-0.67 1.34 -0.34 0.68 0 0 Z " fill="#0000FF" transform="translate(217,240)"/>
<path d="M0 0 C0.66 0.66 1.32 1.32 2 2 C1.01 2 0.02 2 -1 2 C-0.67 1.34 -0.34 0.68 0 0 Z " fill="#FFFFFF" transform="translate(145,240)"/>
<path d="M0 0 C0.66 0.66 1.32 1.32 2 2 C1.01 2 0.02 2 -1 2 C-0.67 1.34 -0.34 0.68 0 0 Z " fill="#0000FF" transform="translate(28,216)"/>
<path d="M0 0 C0.66 0.66 1.32 1.32 2 2 C1.01 2 0.02 2 -1 2 C-0.67 1.34 -0.34 0.68 0 0 Z " fill="#0000FF" transform="translate(208,210)"/>
<path d="M0 0 C0.66 0.66 1.32 1.32 2 2 C1.01 2 0.02 2 -1 2 C-0.67 1.34 -0.34 0.68 0 0 Z " fill="#0000FF" transform="translate(10,210)"/>
<path d="M0 0 C0.66 0.66 1.32 1.32 2 2 C1.01 2 0.02 2 -1 2 C-0.67 1.34 -0.34 0.68 0 0 Z " fill="#0000FF" transform="translate(235,201)"/>
<path d="M0 0 C0.66 0.66 1.32 1.32 2 2 C1.01 2 0.02 2 -1 2 C-0.67 1.34 -0.34 0.68 0 0 Z " fill="#0000FF" transform="translate(208,198)"/>
<path d="M0 0 C0.66 0.66 1.32 1.32 2 2 C1.01 2 0.02 2 -1 2 C-0.67 1.34 -0.34 0.68 0 0 Z " fill="#0000FF" transform="translate(226,195)"/>
<path d="M0 0 C0.66 0.66 1.32 1.32 2 2 C1.01 2 0.02 2 -1 2 C-0.67 1.34 -0.34 0.68 0 0 Z " fill="#0000FF" transform="translate(190,195)"/>
<path d="M0 0 C0.66 0.66 1.32 1.32 2 2 C1.01 2 0.02 2 -1 2 C-0.67 1.34 -0.34 0.68 0 0 Z " fill="#0000FF" transform="translate(37,195)"/>
<path d="M0 0 C0.66 0.66 1.32 1.32 2 2 C1.01 2 0.02 2 -1 2 C-0.67 1.34 -0.34 0.68 0 0 Z " fill="#0000FF" transform="translate(19,174)"/>
<path d="M0 0 C0.66 0.66 1.32 1.32 2 2 C1.01 2 0.02 2 -1 2 C-0.67 1.34 -0.34 0.68 0 0 Z " fill="#0000FF" transform="translate(244,141)"/>
<path d="M0 0 C0.66 0.66 1.32 1.32 2 2 C1.01 2 0.02 2 -1 2 C-0.67 1.34 -0.34 0.68 0 0 Z " fill="#0000FF" transform="translate(217,138)"/>
<path d="M0 0 C0.66 0.66 1.32 1.32 2 2 C1.01 2 0.02 2 -1 2 C-0.67 1.34 -0.34 0.68 0 0 Z " fill="#0000FF" transform="translate(37,105)"/>
<path d="M0 0 C0.66 0.66 1.32 1.32 2 2 C1.01 2 0.02 2 -1 2 C-0.67 1.34 -0.34 0.68 0 0 Z " fill="#0000FF" transform="translate(28,96)"/>
<path d="M0 0 C0.66 0.66 1.32 1.32 2 2 C1.01 2 0.02 2 -1 2 C-0.67 1.34 -0.34 0.68 0 0 Z " fill="#0000FF" transform="translate(37,78)"/>
<path d="M0 0 C0.66 0.66 1.32 1.32 2 2 C1.01 2 0.02 2 -1 2 C-0.67 1.34 -0.34 0.68 0 0 Z " fill="#0000FF" transform="translate(82,60)"/>
<path d="M0 0 C0.66 0.66 1.32 1.32 2 2 C1.01 2 0.02 2 -1 2 C-0.67 1.34 -0.34 0.68 0 0 Z " fill="#0000FF" transform="translate(37,60)"/>
<path d="M0 0 C0.66 0.66 1.32 1.32 2 2 C1.01 2 0.02 2 -1 2 C-0.67 1.34 -0.34 0.68 0 0 Z " fill="#FF00FF" transform="translate(235,54)"/>
<path d="M0 0 C0.66 0.66 1.32 1.32 2 2 C1.01 2 0.02 2 -1 2 C-0.67 1.34 -0.34 0.68 0 0 Z " fill="#0000FF" transform="translate(37,54)"/>
<path d="M0 0 C0.66 0.66 1.32 1.32 2 2 C1.01 2 0.02 2 -1 2 C-0.67 1.34 -0.34 0.68 0 0 Z " fill="#FF00FF" transform="translate(172,48)"/>
<path d="M0 0 C0.66 0.66 1.32 1.32 2 2 C1.01 2 0.02 2 -1 2 C-0.67 1.34 -0.34 0.68 0 0 Z " fill="#FF00FF" transform="translate(163,48)"/>
<path d="M0 0 C0.66 0.66 1.32 1.32 2 2 C1.01 2 0.02 2 -1 2 C-0.67 1.34 -0.34 0.68 0 0 Z " fill="#0000FF" transform="translate(190,42)"/>
<path d="M0 0 C0.66 0.66 1.32 1.32 2 2 C1.01 2 0.02 2 -1 2 C-0.67 1.34 -0.34 0.68 0 0 Z " fill="#000000" transform="translate(208,33)"/>
<path d="M0 0 C0.66 0.66 1.32 1.32 2 2 C1.01 2 0.02 2 -1 2 C-0.67 1.34 -0.34 0.68 0 0 Z " fill="#0000FF" transform="translate(46,24)"/>
<path d="M0 0 C0.66 0.66 1.32 1.32 2 2 C1.01 2 0.02 2 -1 2 C-0.67 1.34 -0.34 0.68 0 0 Z " fill="#000000" transform="translate(28,24)"/>
<path d="M0 0 C0.66 0.66 1.32 1.32 2 2 C1.01 2 0.02 2 -1 2 C-0.67 1.34 -0.34 0.68 0 0 Z " fill="#0000FF" transform="translate(127,12)"/>
<path d="M0 0 C0.66 0.66 1.32 1.32 2 2 C1.01 2 0.02 2 -1 2 C-0.67 1.34 -0.34 0.68 0 0 Z " fill="#000000" transform="translate(91,12)"/>
<path d="M0 0 C0.66 0.66 1.32 1.32 2 2 C1.01 2 0.02 2 -1 2 C-0.67 1.34 -0.34 0.68 0 0 Z " fill="#0000FF" transform="translate(109,9)"/>
<path d="M0 0 C0.66 0.66 1.32 1.32 2 2 C1.01 2 0.02 2 -1 2 C-0.67 1.34 -0.34 0.68 0 0 Z " fill="#0000FF" transform="translate(154,6)"/>
</svg>
